<svg width="96" height="96" xmlns="http://www.w3.org/2000/svg" xmlns:xlink="http://www.w3.org/1999/xlink" overflow="hidden"><defs><clipPath id="clip0"><rect x="592" y="372" width="96" height="96"/></clipPath></defs><g clip-path="url(#clip0)" transform="translate(-592 -372)"><path d="M670.2 419.9C669.9 419.9 669.5 419.9 669.2 419.9 669.2 419.9 669.2 419.9 669.2 419.9 669.2 415 666.8 410.5 662.9 407.7 658.9 404.9 653.8 404.2 649.2 405.8 645.4 398.4 637 394.6 629 396.5 621 398.4 615.2 405.6 615.2 413.9 615.2 413.9 615.2 414 615.2 414.1 609.7 413.2 604.2 415.5 600.8 419.9 597.5 424.4 596.9 430.3 599.2 435.3 601.6 440.3 606.6 443.6 612.1 443.9L612.1 444 670.1 444C676.7 444 682.1 438.6 682.1 432 682.1 425.4 676.8 419.9 670.2 419.9Z"/></g></svg>